STARTFONT 2.3
FONT -FontForge-Indie Flower-Book-R-Normal--11-110-72-72-P-50-ISO10646-1
SIZE 11 72 72  4
FONTBOUNDINGBOX 14 17 -2 -6
COMMENT "Generated by fontforge, http://fontforge.sourceforge.net"
COMMENT "Copyright (c) 2010, Kimberly Geswein (kimberlygeswein.com)"
STARTPROPERTIES 40
FOUNDRY "FontForge"
FAMILY_NAME "Indie Flower"
WEIGHT_NAME "Book"
SLANT "R"
SETWIDTH_NAME "Normal"
ADD_STYLE_NAME ""
PIXEL_SIZE 11
POINT_SIZE 110
RESOLUTION_X 72
RESOLUTION_Y 72
SPACING "P"
AVERAGE_WIDTH 50
CHARSET_REGISTRY "ISO10646"
CHARSET_ENCODING "1"
FONTNAME_REGISTRY ""
CHARSET_COLLECTIONS "ISO8859-2 ISO8859-9 ISO8859-4 ISO10646-1"
BITS_PER_PIXEL 4
FONT_NAME "IndieFlower"
FACE_NAME "Indie Flower"
COPYRIGHT "Copyright (c) 2010, Kimberly Geswein (kimberlygeswein.com)"
FONT_VERSION "1.001 2010"
FONT_ASCENT 9
FONT_DESCENT 2
UNDERLINE_POSITION -1
UNDERLINE_THICKNESS 1
X_HEIGHT 4
CAP_HEIGHT 5
RAW_ASCENT 799
RAW_DESCENT 200
NORM_SPACE 4
RELATIVE_WEIGHT 40
RELATIVE_SETWIDTH 50
SUPERSCRIPT_X 0
SUPERSCRIPT_Y 5
SUPERSCRIPT_SIZE 7
SUBSCRIPT_X 0
SUBSCRIPT_Y 1
SUBSCRIPT_SIZE 7
AVG_LOWERCASE_WIDTH 50
AVG_UPPERCASE_WIDTH 59
ENDPROPERTIES
CHARS 356
STARTCHAR space
ENCODING 32
SWIDTH 375 0
DWIDTH 4 0
BBX 1 1 0 0
BITMAP
00
ENDCHAR
STARTCHAR exclam
ENCODING 33
SWIDTH 149 0
DWIDTH 2 0
BBX 2 9 0 0
BITMAP
80
80
80
90
90
81
10
10
B5
ENDCHAR
STARTCHAR quotedbl
ENCODING 34
SWIDTH 234 0
DWIDTH 3 0
BBX 3 4 0 5
BITMAP
3400
9630
9640
2320
ENDCHAR
STARTCHAR numbersign
ENCODING 35
SWIDTH 768 0
DWIDTH 8 0
BBX 9 6 0 0
BITMAP
0002110000
0007260000
158DAD8600
751A6DAA10
078A6B0000
0002180000
ENDCHAR
STARTCHAR dollar
ENCODING 36
SWIDTH 581 0
DWIDTH 6 0
BBX 7 10 0 0
BITMAP
00085000
001CB000
03AAA200
02886000
005BA000
004A9700
40591720
58990810
01CF7800
00792000
ENDCHAR
STARTCHAR percent
ENCODING 37
SWIDTH 636 0
DWIDTH 7 0
BBX 7 7 0 0
BITMAP
00000400
6A604400
90826000
58490300
00657780
01A17180
05309910
ENDCHAR
STARTCHAR ampersand
ENCODING 38
SWIDTH 457 0
DWIDTH 5 0
BBX 5 8 0 0
BITMAP
036000
06D000
06B000
075450
0B5910
649800
909600
9A3510
ENDCHAR
STARTCHAR quotesingle
ENCODING 39
SWIDTH 102 0
DWIDTH 1 0
BBX 1 3 0 5
BITMAP
70
A0
40
ENDCHAR
STARTCHAR parenleft
ENCODING 40
SWIDTH 421 0
DWIDTH 5 0
BBX 5 8 0 -1
BITMAP
000510
019520
091000
540000
900000
900000
593000
036000
ENDCHAR
STARTCHAR parenright
ENCODING 41
SWIDTH 290 0
DWIDTH 3 0
BBX 3 8 0 -1
BITMAP
3400
0940
00A0
00A0
0090
0650
5B00
7100
ENDCHAR
STARTCHAR asterisk
ENCODING 42
SWIDTH 412 0
DWIDTH 5 0
BBX 5 5 0 2
BITMAP
211610
2CE900
6DE700
359A00
003000
ENDCHAR
STARTCHAR plus
ENCODING 43
SWIDTH 459 0
DWIDTH 5 0
BBX 5 5 0 0
BITMAP
023000
018000
69EB70
20B000
008000
ENDCHAR
STARTCHAR comma
ENCODING 44
SWIDTH 130 0
DWIDTH 1 0
BBX 2 4 0 -2
BITMAP
50
91
A0
90
ENDCHAR
STARTCHAR hyphen
ENCODING 45
SWIDTH 375 0
DWIDTH 4 0
BBX 4 2 0 2
BITMAP
3774
4322
ENDCHAR
STARTCHAR period
ENCODING 46
SWIDTH 204 0
DWIDTH 2 0
BBX 2 2 0 0
BITMAP
5B
5B
ENDCHAR
STARTCHAR slash
ENCODING 47
SWIDTH 309 0
DWIDTH 3 0
BBX 4 9 0 0
BITMAP
0001
0062
0080
0190
0550
0A00
1900
7300
9000
ENDCHAR
STARTCHAR zero
ENCODING 48
SWIDTH 430 0
DWIDTH 5 0
BBX 5 5 0 0
BITMAP
08B600
620820
800360
710740
199800
ENDCHAR
STARTCHAR one
ENCODING 49
SWIDTH 318 0
DWIDTH 4 0
BBX 4 7 0 0
BITMAP
0022
0073
02D1
1AE0
81B0
00A0
0070
ENDCHAR
STARTCHAR two
ENCODING 50
SWIDTH 497 0
DWIDTH 5 0
BBX 6 6 0 0
BITMAP
007930
004090
0000A0
000280
873910
6CBBA1
ENDCHAR
STARTCHAR three
ENCODING 51
SWIDTH 430 0
DWIDTH 5 0
BBX 5 6 0 0
BITMAP
598400
101800
1BD200
015A10
720460
19AA20
ENDCHAR
STARTCHAR four
ENCODING 52
SWIDTH 412 0
DWIDTH 5 0
BBX 5 7 0 0
BITMAP
330000
820000
800440
801C20
6ACD00
021820
000730
ENDCHAR
STARTCHAR five
ENCODING 53
SWIDTH 571 0
DWIDTH 6 0
BBX 6 8 0 0
BITMAP
001332
00B666
027000
08B600
001490
100054
700074
4BBB80
ENDCHAR
STARTCHAR six
ENCODING 54
SWIDTH 440 0
DWIDTH 5 0
BBX 5 7 0 0
BITMAP
002830
048220
280000
8A8700
910550
910470
3CBA10
ENDCHAR
STARTCHAR seven
ENCODING 55
SWIDTH 412 0
DWIDTH 5 0
BBX 5 6 0 0
BITMAP
589400
005400
028500
16C830
009000
009000
ENDCHAR
STARTCHAR eight
ENCODING 56
SWIDTH 375 0
DWIDTH 4 0
BBX 4 7 0 0
BITMAP
0320
78B2
9180
2D60
5563
6408
0887
ENDCHAR
STARTCHAR nine
ENCODING 57
SWIDTH 300 0
DWIDTH 3 0
BBX 4 7 0 0
BITMAP
5880
90A2
A4D1
28D0
0090
0090
0080
ENDCHAR
STARTCHAR colon
ENCODING 58
SWIDTH 84 0
DWIDTH 1 0
BBX 1 4 0 0
BITMAP
50
00
20
10
ENDCHAR
STARTCHAR semicolon
ENCODING 59
SWIDTH 128 0
DWIDTH 1 0
BBX 3 7 -1 -2
BITMAP
0200
0600
0000
0300
0720
0B00
2800
ENDCHAR
STARTCHAR less
ENCODING 60
SWIDTH 487 0
DWIDTH 5 0
BBX 5 5 0 0
BITMAP
000050
003930
067000
982000
369A60
ENDCHAR
STARTCHAR equal
ENCODING 61
SWIDTH 524 0
DWIDTH 6 0
BBX 6 4 0 1
BITMAP
134430
476553
001110
688880
ENDCHAR
STARTCHAR greater
ENCODING 62
SWIDTH 403 0
DWIDTH 4 0
BBX 5 5 0 0
BITMAP
682000
028B30
002B10
059100
760000
ENDCHAR
STARTCHAR question
ENCODING 63
SWIDTH 272 0
DWIDTH 3 0
BBX 3 10 0 0
BITMAP
4600
4480
0090
0380
0B20
2A00
0860
0000
0000
0070
ENDCHAR
STARTCHAR at
ENCODING 64
SWIDTH 815 0
DWIDTH 9 0
BBX 9 10 0 0
BITMAP
0058981000
0750028500
4500000840
6005785090
6045037080
7080085270
62711BAB20
0918911100
0291000000
0029989910
ENDCHAR
STARTCHAR A
ENCODING 65
SWIDTH 562 0
DWIDTH 6 0
BBX 6 9 0 0
BITMAP
004300
084760
250081
520036
600009
99777B
62000A
54000A
36000A
ENDCHAR
STARTCHAR B
ENCODING 66
SWIDTH 741 0
DWIDTH 8 0
BBX 8 8 0 0
BITMAP
15895000
43C24800
00902800
0077F500
00462780
00280028
0029000B
003A99A6
ENDCHAR
STARTCHAR C
ENCODING 67
SWIDTH 515 0
DWIDTH 6 0
BBX 6 8 0 0
BITMAP
000100
019B40
091210
520000
700000
800000
720011
1BAA81
ENDCHAR
STARTCHAR D
ENCODING 68
SWIDTH 741 0
DWIDTH 8 0
BBX 8 8 0 -1
BITMAP
699B8100
000A2960
00080074
00063009
00055009
00045077
003B9B80
00001000
ENDCHAR
STARTCHAR E
ENCODING 69
SWIDTH 524 0
DWIDTH 6 0
BBX 6 7 0 0
BITMAP
7A9880
900000
901340
A87510
800000
900000
6ABCB1
ENDCHAR
STARTCHAR F
ENCODING 70
SWIDTH 514 0
DWIDTH 6 0
BBX 8 7 -1 0
BITMAP
04788740
13A52365
00720000
02A98700
02594100
00190000
00090000
ENDCHAR
STARTCHAR G
ENCODING 71
SWIDTH 571 0
DWIDTH 6 0
BBX 7 7 0 -1
BITMAP
00169600
04820000
37122100
80177A00
71001A00
19977B00
00000710
ENDCHAR
STARTCHAR H
ENCODING 72
SWIDTH 524 0
DWIDTH 6 0
BBX 6 8 0 0
BITMAP
100021
700071
800071
7202B1
678892
8A1062
270054
160036
ENDCHAR
STARTCHAR I
ENCODING 73
SWIDTH 167 0
DWIDTH 2 0
BBX 2 6 0 0
BITMAP
70
81
53
36
28
08
ENDCHAR
STARTCHAR J
ENCODING 74
SWIDTH 439 0
DWIDTH 5 0
BBX 5 8 0 0
BITMAP
000400
000630
000450
000270
600090
620090
072180
007A30
ENDCHAR
STARTCHAR K
ENCODING 75
SWIDTH 468 0
DWIDTH 5 0
BBX 5 7 0 0
BITMAP
200400
80A300
884000
770000
7B2000
739500
530680
ENDCHAR
STARTCHAR L
ENCODING 76
SWIDTH 346 0
DWIDTH 4 0
BBX 4 6 0 0
BITMAP
5100
9100
A000
9000
9000
5BB5
ENDCHAR
STARTCHAR M
ENCODING 77
SWIDTH 534 0
DWIDTH 6 0
BBX 6 7 0 0
BITMAP
710051
6900D2
4AABD1
541072
640064
640047
430028
ENDCHAR
STARTCHAR N
ENCODING 78
SWIDTH 609 0
DWIDTH 7 0
BBX 7 6 0 0
BITMAP
71002200
75001B00
8A000920
89300450
91A20740
902AB700
ENDCHAR
STARTCHAR O
ENCODING 79
SWIDTH 609 0
DWIDTH 7 0
BBX 7 6 0 0
BITMAP
02400000
48697000
80003900
80000740
67000640
07A89600
ENDCHAR
STARTCHAR P
ENCODING 80
SWIDTH 627 0
DWIDTH 7 0
BBX 7 7 0 0
BITMAP
38873000
80137A10
00520190
00540480
004DA700
00280000
00070000
ENDCHAR
STARTCHAR Q
ENCODING 81
SWIDTH 642 0
DWIDTH 7 0
BBX 7 8 0 -2
BITMAP
069A3000
5402C600
90012740
80040090
47057480
05BBEC00
00000580
00000020
ENDCHAR
STARTCHAR R
ENCODING 82
SWIDTH 579 0
DWIDTH 6 0
BBX 7 8 -1 -1
BITMAP
0899A700
15200480
00802780
008C9400
006B0000
00369100
00051940
00000050
ENDCHAR
STARTCHAR S
ENCODING 83
SWIDTH 627 0
DWIDTH 7 0
BBX 7 8 0 -1
BITMAP
00687200
07301700
05700000
00396000
40005A20
83000280
06888930
00011000
ENDCHAR
STARTCHAR T
ENCODING 84
SWIDTH 581 0
DWIDTH 6 0
BBX 8 8 0 0
BITMAP
22110000
478C9992
00080000
00071000
00063000
00045000
00038000
0001C000
ENDCHAR
STARTCHAR U
ENCODING 85
SWIDTH 571 0
DWIDTH 6 0
BBX 7 6 0 0
BITMAP
62006000
80008200
80006400
71003800
3701AD00
08BA2610
ENDCHAR
STARTCHAR V
ENCODING 86
SWIDTH 421 0
DWIDTH 5 0
BBX 5 6 0 0
BITMAP
600230
850640
2B0920
0A3B00
03A800
00A200
ENDCHAR
STARTCHAR W
ENCODING 87
SWIDTH 703 0
DWIDTH 8 0
BBX 8 6 0 0
BITMAP
20000020
900000B0
A0030074
A00A0037
734E4046
1A908B90
ENDCHAR
STARTCHAR X
ENCODING 88
SWIDTH 534 0
DWIDTH 6 0
BBX 6 7 0 -1
BITMAP
050014
081291
01B800
04D300
191A10
820270
400000
ENDCHAR
STARTCHAR Y
ENCODING 89
SWIDTH 403 0
DWIDTH 4 0
BBX 5 8 0 -1
BITMAP
800320
570810
06AB00
004600
008100
009000
009000
001000
ENDCHAR
STARTCHAR Z
ENCODING 90
SWIDTH 571 0
DWIDTH 6 0
BBX 6 7 0 0
BITMAP
698600
100540
000350
048DB5
025800
009001
01CAB9
ENDCHAR
STARTCHAR bracketleft
ENCODING 91
SWIDTH 477 0
DWIDTH 5 0
BBX 6 9 0 -1
BITMAP
015870
795100
910000
560000
180000
080000
070000
080000
08A998
ENDCHAR
STARTCHAR backslash
ENCODING 92
SWIDTH 430 0
DWIDTH 5 0
BBX 5 6 0 0
BITMAP
800000
3A0000
068000
00A500
001B20
000470
ENDCHAR
STARTCHAR bracketright
ENCODING 93
SWIDTH 430 0
DWIDTH 5 0
BBX 5 11 0 -1
BITMAP
110000
59B700
000A00
000720
000430
000340
000350
000350
000360
000370
3CCC80
ENDCHAR
STARTCHAR asciicircum
ENCODING 94
SWIDTH 375 0
DWIDTH 4 0
BBX 4 3 0 5
BITMAP
05A0
2A96
1001
ENDCHAR
STARTCHAR underscore
ENCODING 95
SWIDTH 656 0
DWIDTH 7 0
BBX 7 2 0 0
BITMAP
11000000
389AABB0
ENDCHAR
STARTCHAR grave
ENCODING 96
SWIDTH 172 0
DWIDTH 2 0
BBX 2 2 0 4
BITMAP
65
01
ENDCHAR
STARTCHAR a
ENCODING 97
SWIDTH 505 0
DWIDTH 6 0
BBX 6 6 0 0
BITMAP
016100
023A20
0354B0
7736E1
900052
3ABB91
ENDCHAR
STARTCHAR b
ENCODING 98
SWIDTH 497 0
DWIDTH 5 0
BBX 6 7 0 0
BITMAP
900000
A00000
900000
6A9610
5604A0
370073
09AAA0
ENDCHAR
STARTCHAR c
ENCODING 99
SWIDTH 449 0
DWIDTH 5 0
BBX 5 5 0 0
BITMAP
188800
820300
900000
920000
1A9940
ENDCHAR
STARTCHAR d
ENCODING 100
SWIDTH 524 0
DWIDTH 6 0
BBX 6 8 0 0
BITMAP
000540
0003A0
0000D0
2CC7C1
9404E3
A000D4
9208C5
2CB614
ENDCHAR
STARTCHAR e
ENCODING 101
SWIDTH 515 0
DWIDTH 6 0
BBX 6 6 0 0
BITMAP
058500
550900
902A00
977100
640000
07AA81
ENDCHAR
STARTCHAR f
ENCODING 102
SWIDTH 376 0
DWIDTH 4 0
BBX 5 8 0 0
BITMAP
019920
082190
070000
090000
6D8500
295200
02A000
008300
ENDCHAR
STARTCHAR g
ENCODING 103
SWIDTH 366 0
DWIDTH 4 0
BBX 6 11 -2 -6
BITMAP
000271
002837
00800B
00A14D
003A8D
00000A
000009
310009
46000A
06B778
000450
ENDCHAR
STARTCHAR h
ENCODING 104
SWIDTH 427 0
DWIDTH 5 0
BBX 6 8 -1 0
BITMAP
150000
0A0000
0A0000
08BC40
073090
053063
045064
036063
ENDCHAR
STARTCHAR i
ENCODING 105
SWIDTH 174 0
DWIDTH 2 0
BBX 2 7 0 0
BITMAP
50
10
42
54
46
39
09
ENDCHAR
STARTCHAR j
ENCODING 106
SWIDTH 200 0
DWIDTH 2 0
BBX 5 12 -2 -5
BITMAP
003000
003000
000100
001800
000B00
000B00
000830
000650
230460
0A0370
067360
005C20
ENDCHAR
STARTCHAR k
ENCODING 107
SWIDTH 403 0
DWIDTH 4 0
BBX 5 7 0 0
BITMAP
400000
800000
906400
855000
6A0000
5D2000
638B30
ENDCHAR
STARTCHAR l
ENCODING 108
SWIDTH 120 0
DWIDTH 1 0
BBX 1 6 0 0
BITMAP
80
A0
B0
B0
A0
80
ENDCHAR
STARTCHAR m
ENCODING 109
SWIDTH 750 0
DWIDTH 8 0
BBX 8 5 0 0
BITMAP
14401870
A969B357
A109500A
9104600A
61002009
ENDCHAR
STARTCHAR n
ENCODING 110
SWIDTH 459 0
DWIDTH 5 0
BBX 5 5 0 0
BITMAP
479900
A40650
A101A0
8300A0
350090
ENDCHAR
STARTCHAR o
ENCODING 111
SWIDTH 487 0
DWIDTH 5 0
BBX 5 5 0 0
BITMAP
089C30
7301A0
800090
8102B0
2A9B20
ENDCHAR
STARTCHAR p
ENCODING 112
SWIDTH 520 0
DWIDTH 6 0
BBX 6 8 0 -4
BITMAP
07A950
850074
B53056
A69A81
770000
490000
0B0000
070000
ENDCHAR
STARTCHAR q
ENCODING 113
SWIDTH 412 0
DWIDTH 5 0
BBX 5 10 0 -4
BITMAP
026300
382A10
800A10
800B00
820B00
19BC00
000900
000A00
000A00
000300
ENDCHAR
STARTCHAR r
ENCODING 114
SWIDTH 346 0
DWIDTH 4 0
BBX 4 5 0 0
BITMAP
68A6
A000
9000
6400
1700
ENDCHAR
STARTCHAR s
ENCODING 115
SWIDTH 514 0
DWIDTH 6 0
BBX 6 5 0 0
BITMAP
499600
730500
078870
300074
3A99A1
ENDCHAR
STARTCHAR t
ENCODING 116
SWIDTH 328 0
DWIDTH 4 0
BBX 4 7 0 0
BITMAP
0900
0910
0A20
7DA4
0920
0830
0530
ENDCHAR
STARTCHAR u
ENCODING 117
SWIDTH 501 0
DWIDTH 6 0
BBX 6 6 0 -1
BITMAP
600010
900190
9002A0
6507C0
09A672
000012
ENDCHAR
STARTCHAR v
ENCODING 118
SWIDTH 389 0
DWIDTH 4 0
BBX 4 5 0 0
BITMAP
1000
9106
4628
0A83
03B0
ENDCHAR
STARTCHAR w
ENCODING 119
SWIDTH 656 0
DWIDTH 7 0
BBX 7 5 0 0
BITMAP
40000000
90030250
90091090
811D40B0
19C49B60
ENDCHAR
STARTCHAR x
ENCODING 120
SWIDTH 448 0
DWIDTH 5 0
BBX 5 6 0 -1
BITMAP
100020
930850
1AB200
08B400
431B30
000140
ENDCHAR
STARTCHAR y
ENCODING 121
SWIDTH 487 0
DWIDTH 5 0
BBX 6 11 0 -6
BITMAP
400040
800080
8100A0
3702E1
059772
000052
000062
000081
640090
1A8760
003400
ENDCHAR
STARTCHAR z
ENCODING 122
SWIDTH 459 0
DWIDTH 5 0
BBX 5 6 0 0
BITMAP
489300
400900
003800
4AC610
0A2010
0CBB60
ENDCHAR
STARTCHAR braceleft
ENCODING 123
SWIDTH 393 0
DWIDTH 4 0
BBX 5 12 0 -2
BITMAP
048800
670100
900000
710000
1A8100
18B700
422900
039100
190000
450000
0B8820
001000
ENDCHAR
STARTCHAR bar
ENCODING 124
SWIDTH 149 0
DWIDTH 2 0
BBX 2 7 0 0
BITMAP
60
70
62
54
45
45
35
ENDCHAR
STARTCHAR braceright
ENCODING 125
SWIDTH 440 0
DWIDTH 5 0
BBX 5 14 0 -3
BITMAP
355100
955A00
000B00
008500
074000
097600
094200
048000
004500
000810
000260
000180
931930
167300
ENDCHAR
STARTCHAR asciitilde
ENCODING 126
SWIDTH 402 0
DWIDTH 4 0
BBX 4 2 0 4
BITMAP
6768
3021
ENDCHAR
STARTCHAR nonbreakingspace
ENCODING 160
SWIDTH 375 0
DWIDTH 4 0
BBX 1 1 0 0
BITMAP
00
ENDCHAR
STARTCHAR exclamdown
ENCODING 161
SWIDTH 149 0
DWIDTH 2 0
BBX 2 8 0 -1
BITMAP
84
00
50
80
80
80
70
20
ENDCHAR
STARTCHAR cent
ENCODING 162
SWIDTH 449 0
DWIDTH 5 0
BBX 5 7 0 -1
BITMAP
005000
07C700
739400
90A000
929000
3BD840
004000
ENDCHAR
STARTCHAR sterling
ENCODING 163
SWIDTH 758 0
DWIDTH 8 0
BBX 8 8 0 0
BITMAP
00001A97
00007107
00017000
038CD960
01162000
00070000
577A5100
AF967500
ENDCHAR
STARTCHAR currency
ENCODING 164
SWIDTH 618 0
DWIDTH 7 0
BBX 7 6 0 0
BITMAP
64265510
0B958900
09000700
08000900
0A87B400
15011600
ENDCHAR
STARTCHAR yen
ENCODING 165
SWIDTH 389 0
DWIDTH 4 0
BBX 5 9 0 0
BITMAP
100000
640430
180B00
077500
02C000
47C500
36B300
159200
047000
ENDCHAR
STARTCHAR brokenbar
ENCODING 166
SWIDTH 117 0
DWIDTH 1 0
BBX 1 7 0 0
BITMAP
20
90
80
60
A0
A0
80
ENDCHAR
STARTCHAR section
ENCODING 167
SWIDTH 514 0
DWIDTH 6 0
BBX 6 8 0 0
BITMAP
024100
3A6970
382030
4B9892
830048
189AD2
310074
1999A1
ENDCHAR
STARTCHAR dieresis
ENCODING 168
SWIDTH 397 0
DWIDTH 4 0
BBX 4 2 0 4
BITMAP
2855
0211
ENDCHAR
STARTCHAR copyright
ENCODING 169
SWIDTH 667 0
DWIDTH 7 0
BBX 8 7 0 0
BITMAP
00110000
0688B600
36488760
81803090
82800062
398894A1
05A89820
ENDCHAR
STARTCHAR ordfeminine
ENCODING 170
SWIDTH 266 0
DWIDTH 3 0
BBX 3 3 0 3
BITMAP
1620
5570
5640
ENDCHAR
STARTCHAR guillemotleft
ENCODING 171
SWIDTH 755 0
DWIDTH 8 0
BBX 8 6 0 0
BITMAP
00000001
00005293
00399810
068A4000
9839AA81
369A6021
ENDCHAR
STARTCHAR logicalnot
ENCODING 172
SWIDTH 369 0
DWIDTH 4 0
BBX 4 3 0 2
BITMAP
3665
2329
0002
ENDCHAR
STARTCHAR hyphen_
ENCODING 173
SWIDTH 375 0
DWIDTH 4 0
BBX 4 2 0 2
BITMAP
3774
4322
ENDCHAR
STARTCHAR registered
ENCODING 174
SWIDTH 708 0
DWIDTH 8 0
BBX 8 7 0 0
BITMAP
00341000
0765A900
49977780
81668581
715B2052
2A4475A0
03999610
ENDCHAR
STARTCHAR macron
ENCODING 175
SWIDTH 287 0
DWIDTH 3 0
BBX 4 1 0 5
BITMAP
5AA1
ENDCHAR
STARTCHAR degree
ENCODING 176
SWIDTH 254 0
DWIDTH 3 0
BBX 3 4 0 3
BITMAP
1300
5430
4050
6810
ENDCHAR
STARTCHAR plusminus
ENCODING 177
SWIDTH 459 0
DWIDTH 5 0
BBX 5 6 0 0
BITMAP
001000
018000
13D640
65D430
00A310
287750
ENDCHAR
STARTCHAR twosuperior
ENCODING 178
SWIDTH 296 0
DWIDTH 3 0
BBX 3 4 0 2
BITMAP
0420
0150
0050
A950
ENDCHAR
STARTCHAR threesuperior
ENCODING 179
SWIDTH 204 0
DWIDTH 2 0
BBX 3 4 0 3
BITMAP
5400
3600
2710
6720
ENDCHAR
STARTCHAR acute
ENCODING 180
SWIDTH 180 0
DWIDTH 2 0
BBX 2 2 0 4
BITMAP
46
60
ENDCHAR
STARTCHAR mu
ENCODING 181
SWIDTH 501 0
DWIDTH 6 0
BBX 6 7 0 -1
BITMAP
100000
900140
9001A0
C103B0
C92BC0
959364
600000
ENDCHAR
STARTCHAR paragraph
ENCODING 182
SWIDTH 413 0
DWIDTH 5 0
BBX 5 7 0 -1
BITMAP
189700
9FFC00
BFF820
119820
008820
009810
001100
ENDCHAR
STARTCHAR periodcentered
ENCODING 183
SWIDTH 212 0
DWIDTH 2 0
BBX 2 2 0 2
BITMAP
01
5B
ENDCHAR
STARTCHAR cedilla
ENCODING 184
SWIDTH 445 0
DWIDTH 5 0
BBX 4 5 1 -4
BITMAP
0100
2600
0583
1737
0340
ENDCHAR
STARTCHAR onesuperior
ENCODING 185
SWIDTH 197 0
DWIDTH 2 0
BBX 2 5 0 2
BITMAP
01
07
5B
38
06
ENDCHAR
STARTCHAR ordmasculine
ENCODING 186
SWIDTH 254 0
DWIDTH 3 0
BBX 3 4 0 3
BITMAP
1300
5430
4050
6810
ENDCHAR
STARTCHAR guillemotright
ENCODING 187
SWIDTH 659 0
DWIDTH 7 0
BBX 7 6 0 0
BITMAP
00120000
68398400
028B57B0
002B3A30
0595A100
76260000
ENDCHAR
STARTCHAR onequarter
ENCODING 188
SWIDTH 626 0
DWIDTH 7 0
BBX 7 9 0 0
BITMAP
00020000
00160000
04360000
2C440000
47610000
05861000
00860440
04448B20
06000430
ENDCHAR
STARTCHAR onehalf
ENCODING 189
SWIDTH 566 0
DWIDTH 6 0
BBX 6 9 0 -1
BITMAP
001100
025600
0A3600
7A3641
286246
068006
009224
047CB6
060000
ENDCHAR
STARTCHAR threequarters
ENCODING 190
SWIDTH 566 0
DWIDTH 6 0
BBX 6 9 0 -1
BITMAP
000200
560600
370600
153710
568801
007508
007389
026006
051000
ENDCHAR
STARTCHAR questiondown
ENCODING 191
SWIDTH 272 0
DWIDTH 3 0
BBX 4 9 0 -1
BITMAP
5100
0000
0000
4B40
0B10
7600
A000
5771
0120
ENDCHAR
STARTCHAR Agrave
ENCODING 192
SWIDTH 562 0
DWIDTH 6 0
BBX 6 10 0 0
BITMAP
005600
004400
084760
250081
520036
600009
99777B
62000A
54000A
36000A
ENDCHAR
STARTCHAR Aacute
ENCODING 193
SWIDTH 562 0
DWIDTH 6 0
BBX 6 10 0 0
BITMAP
018100
046300
084760
250081
520036
600009
99777B
62000A
54000A
36000A
ENDCHAR
STARTCHAR Acircumflex
ENCODING 194
SWIDTH 562 0
DWIDTH 6 0
BBX 6 11 0 0
BITMAP
00A500
068C10
024400
084760
250081
520036
600009
99777B
62000A
54000A
36000A
ENDCHAR
STARTCHAR Atilde
ENCODING 195
SWIDTH 562 0
DWIDTH 6 0
BBX 6 10 0 0
BITMAP
097660
034600
084760
250081
520036
600009
99777B
62000A
54000A
36000A
ENDCHAR
STARTCHAR Adieresis
ENCODING 196
SWIDTH 562 0
DWIDTH 6 0
BBX 6 10 0 0
BITMAP
046720
025500
084760
250081
520036
600009
99777B
62000A
54000A
36000A
ENDCHAR
STARTCHAR Aring
ENCODING 197
SWIDTH 562 0
DWIDTH 6 0
BBX 6 10 0 0
BITMAP
026700
01A800
084770
250081
520036
600009
99777B
62000A
54000A
36000A
ENDCHAR
STARTCHAR AE
ENCODING 198
SWIDTH 960 0
DWIDTH 11 0
BBX 11 9 0 0
BITMAP
004300000000
084760000000
250088A98810
52003E100000
60000E114500
99777F875100
62000A000000
54000A000000
36000CABCB20
ENDCHAR
STARTCHAR Ccedilla
ENCODING 199
SWIDTH 515 0
DWIDTH 6 0
BBX 6 12 0 -4
BITMAP
000100
019B40
091210
520000
700000
800000
720011
1BAA81
062000
006810
045730
004300
ENDCHAR
STARTCHAR Egrave
ENCODING 200
SWIDTH 524 0
DWIDTH 6 0
BBX 6 9 0 0
BITMAP
008300
000100
7A9880
900000
901340
A87510
800000
900000
6ABCB1
ENDCHAR
STARTCHAR Eacute
ENCODING 201
SWIDTH 524 0
DWIDTH 6 0
BBX 6 9 0 0
BITMAP
007300
024000
7A9880
900000
901340
A87510
800000
900000
6ABCB1
ENDCHAR
STARTCHAR Ecircumflex
ENCODING 202
SWIDTH 524 0
DWIDTH 6 0
BBX 6 10 0 0
BITMAP
007800
049A40
010010
7A9880
900000
901340
A87510
800000
900000
6ABCB1
ENDCHAR
STARTCHAR Edieresis
ENCODING 203
SWIDTH 524 0
DWIDTH 6 0
BBX 6 9 0 0
BITMAP
055820
011200
7A9880
900000
901340
A87510
800000
900000
6ABCB1
ENDCHAR
STARTCHAR Igrave
ENCODING 204
SWIDTH 167 0
DWIDTH 2 0
BBX 3 8 -1 0
BITMAP
1A10
0110
0700
0810
0530
0360
0280
0080
ENDCHAR
STARTCHAR Iacute
ENCODING 205
SWIDTH 167 0
DWIDTH 2 0
BBX 3 8 -1 0
BITMAP
0730
2400
0700
0810
0530
0360
0280
0080
ENDCHAR
STARTCHAR Icircumflex
ENCODING 206
SWIDTH 167 0
DWIDTH 2 0
BBX 4 10 -1 0
BITMAP
0690
39A5
1001
0000
0700
0810
0530
0360
0280
0080
ENDCHAR
STARTCHAR Idieresis
ENCODING 207
SWIDTH 167 0
DWIDTH 2 0
BBX 4 8 -2 0
BITMAP
1946
0312
0070
0081
0053
0036
0028
0008
ENDCHAR
STARTCHAR Eth
ENCODING 208
SWIDTH 741 0
DWIDTH 8 0
BBX 8 8 0 -1
BITMAP
699B8100
000A2960
00090074
004CA809
00055009
00045077
003B9B80
00001000
ENDCHAR
STARTCHAR Ntilde
ENCODING 209
SWIDTH 609 0
DWIDTH 7 0
BBX 7 8 0 0
BITMAP
04878200
03011000
71002200
75001B00
8A000920
89300450
91A20740
902AB700
ENDCHAR
STARTCHAR Ograve
ENCODING 210
SWIDTH 609 0
DWIDTH 7 0
BBX 7 8 0 0
BITMAP
001A1000
00010000
02400000
48697000
80003900
80000740
67000640
07A89600
ENDCHAR
STARTCHAR Oacute
ENCODING 211
SWIDTH 609 0
DWIDTH 7 0
BBX 7 8 0 0
BITMAP
00280000
00500000
02400000
48697000
80003900
80000740
67000640
07A89600
ENDCHAR
STARTCHAR Ocircumflex
ENCODING 212
SWIDTH 609 0
DWIDTH 7 0
BBX 7 8 0 0
BITMAP
00C20000
097B0000
03420000
48697000
80003900
80000740
67000640
07A89600
ENDCHAR
STARTCHAR Otilde
ENCODING 213
SWIDTH 609 0
DWIDTH 7 0
BBX 7 7 0 0
BITMAP
09766000
05430000
48697000
80003900
80000740
67000640
07A89600
ENDCHAR
STARTCHAR Odieresis
ENCODING 214
SWIDTH 609 0
DWIDTH 7 0
BBX 7 8 0 0
BITMAP
00A37000
00312000
02400000
48697000
80003900
80000740
67000640
07A89600
ENDCHAR
STARTCHAR multiply
ENCODING 215
SWIDTH 448 0
DWIDTH 5 0
BBX 4 4 0 0
BITMAP
3305
0AA3
09A3
0211
ENDCHAR
STARTCHAR Oslash
ENCODING 216
SWIDTH 609 0
DWIDTH 7 0
BBX 7 8 0 -1
BITMAP
00026000
02463000
486D8000
80193900
80740740
67A00640
09D89600
08200000
ENDCHAR
STARTCHAR Ugrave
ENCODING 217
SWIDTH 571 0
DWIDTH 6 0
BBX 7 8 0 0
BITMAP
00390000
00010000
62006000
80008200
80006400
71003800
3701AD00
08BA2610
ENDCHAR
STARTCHAR Uacute
ENCODING 218
SWIDTH 571 0
DWIDTH 6 0
BBX 7 8 0 0
BITMAP
00460000
00600000
62006000
80008200
80006400
71003800
3701AD00
08BA2610
ENDCHAR
STARTCHAR Ucircumflex
ENCODING 219
SWIDTH 571 0
DWIDTH 6 0
BBX 7 10 0 0
BITMAP
003B0000
01A88000
01101000
00000000
62006000
80008200
80006400
71003800
3701AD00
08BA2610
ENDCHAR
STARTCHAR Udieresis
ENCODING 220
SWIDTH 571 0
DWIDTH 6 0
BBX 7 8 0 0
BITMAP
02855000
00211000
62006000
80008200
80006400
71003800
3701AD00
08BA2610
ENDCHAR
STARTCHAR Yacute
ENCODING 221
SWIDTH 403 0
DWIDTH 4 0
BBX 5 10 0 -1
BITMAP
005500
005000
800320
570810
06AB00
004600
008100
009000
009000
001000
ENDCHAR
STARTCHAR Thorn
ENCODING 222
SWIDTH 497 0
DWIDTH 5 0
BBX 6 9 0 -2
BITMAP
420000
730000
730000
6B9610
5604A0
470073
4BAAA0
360000
140000
ENDCHAR
STARTCHAR germandbls
ENCODING 223
SWIDTH 590 0
DWIDTH 7 0
BBX 7 10 0 -2
BITMAP
49710000
942A1000
92090000
74DA0000
4415A200
25000910
16000930
18598500
39000000
14000000
ENDCHAR
STARTCHAR agrave
ENCODING 224
SWIDTH 505 0
DWIDTH 6 0
BBX 6 7 0 0
BITMAP
00A200
017200
023A20
0354B0
7736E1
900052
3ABB91
ENDCHAR
STARTCHAR aacute
ENCODING 225
SWIDTH 505 0
DWIDTH 6 0
BBX 6 8 0 0
BITMAP
007300
024000
016100
023A20
0354B0
7736E1
900052
3ABB91
ENDCHAR
STARTCHAR acircumflex
ENCODING 226
SWIDTH 505 0
DWIDTH 6 0
BBX 6 8 0 0
BITMAP
008600
058B20
036210
023A20
0354B0
7736E1
900052
3ABB91
ENDCHAR
STARTCHAR atilde
ENCODING 227
SWIDTH 505 0
DWIDTH 6 0
BBX 6 8 0 0
BITMAP
197750
120200
016100
023A20
0354B0
7736E1
900052
3ABB91
ENDCHAR
STARTCHAR adieresis
ENCODING 228
SWIDTH 505 0
DWIDTH 6 0
BBX 6 7 0 0
BITMAP
055820
037400
023A20
0354B0
7736E1
900052
3ABB91
ENDCHAR
STARTCHAR aring
ENCODING 229
SWIDTH 505 0
DWIDTH 6 0
BBX 6 8 0 0
BITMAP
001000
025700
02C500
023A20
0354B0
7736E1
900052
3ABB91
ENDCHAR
STARTCHAR ae
ENCODING 230
SWIDTH 881 0
DWIDTH 10 0
BBX 10 7 0 -1
BITMAP
0161015300
023A393920
0354E20720
7736E79600
9000550000
3ABB989772
0000001310
ENDCHAR
STARTCHAR ccedilla
ENCODING 231
SWIDTH 449 0
DWIDTH 5 0
BBX 5 9 0 -4
BITMAP
078700
730400
900000
920000
1BA940
063000
006810
046720
003200
ENDCHAR
STARTCHAR egrave
ENCODING 232
SWIDTH 515 0
DWIDTH 6 0
BBX 6 7 0 0
BITMAP
029000
059500
550900
902A00
977100
640000
07AA81
ENDCHAR
STARTCHAR eacute
ENCODING 233
SWIDTH 515 0
DWIDTH 6 0
BBX 6 8 0 0
BITMAP
008200
032000
058500
550900
902A00
977100
640000
07AA81
ENDCHAR
STARTCHAR ecircumflex
ENCODING 234
SWIDTH 515 0
DWIDTH 6 0
BBX 6 8 0 0
BITMAP
007700
049B30
068510
550900
902A00
977100
640000
07AA81
ENDCHAR
STARTCHAR edieresis
ENCODING 235
SWIDTH 515 0
DWIDTH 6 0
BBX 6 7 0 0
BITMAP
083A00
078700
550900
902A00
977100
640000
07AA81
ENDCHAR
STARTCHAR igrave
ENCODING 236
SWIDTH 174 0
DWIDTH 2 0
BBX 2 7 0 0
BITMAP
51
36
42
54
46
39
09
ENDCHAR
STARTCHAR iacute
ENCODING 237
SWIDTH 174 0
DWIDTH 2 0
BBX 3 7 -1 0
BITMAP
0440
1700
0420
0540
0460
0390
0090
ENDCHAR
STARTCHAR icircumflex
ENCODING 238
SWIDTH 174 0
DWIDTH 2 0
BBX 4 8 -1 0
BITMAP
0590
39A5
1001
0420
0540
0460
0390
0090
ENDCHAR
STARTCHAR idieresis
ENCODING 239
SWIDTH 174 0
DWIDTH 2 0
BBX 4 7 -1 0
BITMAP
2241
4472
0420
0540
0460
0390
0090
ENDCHAR
STARTCHAR eth
ENCODING 240
SWIDTH 407 0
DWIDTH 4 0
BBX 5 7 0 -1
BITMAP
794110
03DC30
055A00
574A40
900440
4A9B00
002000
ENDCHAR
STARTCHAR ntilde
ENCODING 241
SWIDTH 459 0
DWIDTH 5 0
BBX 5 7 0 0
BITMAP
676810
302100
479900
A40650
A101A0
8300A0
350090
ENDCHAR
STARTCHAR ograve
ENCODING 242
SWIDTH 487 0
DWIDTH 5 0
BBX 5 6 0 0
BITMAP
008400
089D30
7301A0
800090
8102B0
2A9B20
ENDCHAR
STARTCHAR oacute
ENCODING 243
SWIDTH 487 0
DWIDTH 5 0
BBX 5 7 0 0
BITMAP
008200
023000
089C30
7301A0
800090
8102B0
2A9B20
ENDCHAR
STARTCHAR ocircumflex
ENCODING 244
SWIDTH 487 0
DWIDTH 5 0
BBX 5 7 0 0
BITMAP
00B400
077C00
099D30
7301A0
800090
8102B0
2A9B20
ENDCHAR
STARTCHAR otilde
ENCODING 245
SWIDTH 487 0
DWIDTH 5 0
BBX 5 6 0 0
BITMAP
197650
1AAE30
7301A0
800090
8102B0
2A9B20
ENDCHAR
STARTCHAR odieresis
ENCODING 246
SWIDTH 487 0
DWIDTH 5 0
BBX 5 6 0 0
BITMAP
073A00
0AAF30
7301A0
800090
8102B0
2A9B20
ENDCHAR
STARTCHAR divide
ENCODING 247
SWIDTH 335 0
DWIDTH 4 0
BBX 4 4 0 0
BITMAP
0410
4981
0200
0100
ENDCHAR
STARTCHAR oslash
ENCODING 248
SWIDTH 487 0
DWIDTH 5 0
BBX 5 5 0 0
BITMAP
027B20
484B90
80A190
9852B0
5C9B30
ENDCHAR
STARTCHAR ugrave
ENCODING 249
SWIDTH 501 0
DWIDTH 6 0
BBX 6 8 0 -1
BITMAP
048000
001000
600010
900190
9002A0
6507C0
09A672
000012
ENDCHAR
STARTCHAR uacute
ENCODING 250
SWIDTH 501 0
DWIDTH 6 0
BBX 6 8 0 -1
BITMAP
007300
024000
600010
900190
9002A0
6507C0
09A672
000012
ENDCHAR
STARTCHAR ucircumflex
ENCODING 251
SWIDTH 501 0
DWIDTH 6 0
BBX 6 9 0 -1
BITMAP
009600
058C20
010110
600010
900190
9002A0
6507C0
09A672
000012
ENDCHAR
STARTCHAR udieresis
ENCODING 252
SWIDTH 501 0
DWIDTH 6 0
BBX 6 8 0 -1
BITMAP
092900
030300
600010
900190
9002A0
6507C0
09A672
000012
ENDCHAR
STARTCHAR yacute
ENCODING 253
SWIDTH 487 0
DWIDTH 5 0
BBX 6 13 0 -6
BITMAP
008200
033000
400040
800080
8100A0
3702E1
059772
000052
000062
000081
640090
1A8760
003400
ENDCHAR
STARTCHAR thorn
ENCODING 254
SWIDTH 520 0
DWIDTH 6 0
BBX 6 8 0 -2
BITMAP
310000
800000
8A9991
930046
A85495
A46640
A00000
900000
ENDCHAR
STARTCHAR ydieresis
ENCODING 255
SWIDTH 487 0
DWIDTH 5 0
BBX 6 13 0 -6
BITMAP
092900
020300
400040
800080
8100A0
3702E1
059772
000052
000062
000081
640090
1A8760
003400
ENDCHAR
STARTCHAR Amacron
ENCODING 256
SWIDTH 562 0
DWIDTH 6 0
BBX 6 10 0 0
BITMAP
06AA10
004300
084760
250081
520036
600009
99777B
62000A
54000A
36000A
ENDCHAR
STARTCHAR amacron
ENCODING 257
SWIDTH 505 0
DWIDTH 6 0
BBX 6 7 0 0
BITMAP
07A900
016100
023A20
0354B0
7736E1
900052
3ABB91
ENDCHAR
STARTCHAR Abreve
ENCODING 258
SWIDTH 562 0
DWIDTH 6 0
BBX 6 11 0 0
BITMAP
002310
004600
004300
084760
250081
520036
600009
99777B
62000A
54000A
36000A
ENDCHAR
STARTCHAR abreve
ENCODING 259
SWIDTH 505 0
DWIDTH 6 0
BBX 6 8 0 0
BITMAP
020300
017200
016100
023A20
0354B0
7736E1
900052
3ABB91
ENDCHAR
STARTCHAR Aogonek
ENCODING 260
SWIDTH 562 0
DWIDTH 6 0
BBX 7 11 0 -2
BITMAP
00430000
08476000
25008100
52003600
60000900
99777B00
62000A00
54000A00
36003B00
00009000
00005610
ENDCHAR
STARTCHAR aogonek
ENCODING 261
SWIDTH 505 0
DWIDTH 6 0
BBX 6 8 0 -2
BITMAP
016100
023A20
0354B0
7736E1
900052
3ABC91
000A20
000240
ENDCHAR
STARTCHAR Cacute
ENCODING 262
SWIDTH 515 0
DWIDTH 6 0
BBX 6 9 0 0
BITMAP
002800
005100
019B40
091210
520000
700000
800000
720011
1BAA81
ENDCHAR
STARTCHAR cacute
ENCODING 263
SWIDTH 449 0
DWIDTH 5 0
BBX 5 7 0 0
BITMAP
006400
015000
188800
820300
900000
920000
1A9940
ENDCHAR
STARTCHAR Ccircumflex
ENCODING 264
SWIDTH 515 0
DWIDTH 6 0
BBX 6 10 0 0
BITMAP
007700
049B30
010110
019B40
091210
520000
700000
800000
720011
1BAA81
ENDCHAR
STARTCHAR ccircumflex
ENCODING 265
SWIDTH 449 0
DWIDTH 5 0
BBX 5 8 0 0
BITMAP
00C200
097B00
010100
188800
820300
900000
920000
1A9940
ENDCHAR
STARTCHAR Cdotaccent
ENCODING 266
SWIDTH 515 0
DWIDTH 6 0
BBX 6 9 0 0
BITMAP
005300
000100
019B40
091210
520000
700000
800000
720011
1BAA81
ENDCHAR
STARTCHAR cdotaccent
ENCODING 267
SWIDTH 449 0
DWIDTH 5 0
BBX 5 6 0 0
BITMAP
008000
188800
820300
900000
920000
1A9940
ENDCHAR
STARTCHAR Ccaron
ENCODING 268
SWIDTH 515 0
DWIDTH 6 0
BBX 6 9 0 0
BITMAP
006460
001810
019B40
091210
520000
700000
800000
720011
1BAA81
ENDCHAR
STARTCHAR ccaron
ENCODING 269
SWIDTH 449 0
DWIDTH 5 0
BBX 5 7 0 0
BITMAP
054700
007200
188800
820300
900000
920000
1A9940
ENDCHAR
STARTCHAR Dcaron
ENCODING 270
SWIDTH 741 0
DWIDTH 8 0
BBX 8 10 0 -1
BITMAP
00165400
00026000
699B8100
000A2960
00080074
00063009
00055009
00045077
003B9B80
00001000
ENDCHAR
STARTCHAR dcaron
ENCODING 271
SWIDTH 582 0
DWIDTH 6 0
BBX 7 8 0 0
BITMAP
00054710
0003A730
0000D320
2CC7C100
9404E300
A000D400
9208C500
2CB61400
ENDCHAR
STARTCHAR Dcroat
ENCODING 272
SWIDTH 741 0
DWIDTH 8 0
BBX 8 8 0 -1
BITMAP
699B8100
000A2960
00080074
006CA109
00155009
00045077
003B9B80
00001000
ENDCHAR
STARTCHAR dcroat
ENCODING 273
SWIDTH 524 0
DWIDTH 6 0
BBX 6 8 0 0
BITMAP
000540
0039C5
0033D2
2CC6C1
9405E3
A000D4
9208C5
2CB614
ENDCHAR
STARTCHAR Emacron
ENCODING 274
SWIDTH 524 0
DWIDTH 6 0
BBX 6 8 0 0
BITMAP
05AA10
7A9880
900000
901340
A87510
800000
900000
6ABCB1
ENDCHAR
STARTCHAR emacron
ENCODING 275
SWIDTH 515 0
DWIDTH 6 0
BBX 6 7 0 0
BITMAP
06AA10
058500
550900
902A00
977100
640000
07AA81
ENDCHAR
STARTCHAR Ebreve
ENCODING 276
SWIDTH 524 0
DWIDTH 6 0
BBX 6 9 0 0
BITMAP
011300
006300
7A9880
900000
901340
A87510
800000
900000
6ABCB1
ENDCHAR
STARTCHAR ebreve
ENCODING 277
SWIDTH 515 0
DWIDTH 6 0
BBX 6 8 0 0
BITMAP
002300
005600
058500
550900
902A00
977100
640000
07AA81
ENDCHAR
STARTCHAR Edotaccent
ENCODING 278
SWIDTH 524 0
DWIDTH 6 0
BBX 6 8 0 0
BITMAP
008000
7A9880
900000
901340
A87510
800000
900000
6ABCB1
ENDCHAR
STARTCHAR edotaccent
ENCODING 279
SWIDTH 515 0
DWIDTH 6 0
BBX 6 7 0 0
BITMAP
008000
058500
550900
902A00
977100
640000
07AA81
ENDCHAR
STARTCHAR Eogonek
ENCODING 280
SWIDTH 524 0
DWIDTH 6 0
BBX 6 9 0 -2
BITMAP
7A9880
900000
901340
A87510
800000
900000
6ABCB1
001900
000660
ENDCHAR
STARTCHAR eogonek
ENCODING 281
SWIDTH 515 0
DWIDTH 6 0
BBX 6 8 0 -2
BITMAP
058500
550900
902A00
977100
640000
07BA81
003700
000650
ENDCHAR
STARTCHAR Ecaron
ENCODING 282
SWIDTH 524 0
DWIDTH 6 0
BBX 6 9 0 0
BITMAP
035630
004500
7A9880
900000
901340
A87510
800000
900000
6ABCB1
ENDCHAR
STARTCHAR ecaron
ENCODING 283
SWIDTH 515 0
DWIDTH 6 0
BBX 6 8 0 0
BITMAP
035620
005400
058500
550900
902A00
977100
640000
07AA81
ENDCHAR
STARTCHAR Gcircumflex
ENCODING 284
SWIDTH 571 0
DWIDTH 6 0
BBX 7 10 0 -1
BITMAP
0004A000
002A9600
00100100
00169600
04820000
37122100
80177A00
71001A00
19977B00
00000710
ENDCHAR
STARTCHAR gcircumflex
ENCODING 285
SWIDTH 366 0
DWIDTH 4 0
BBX 6 14 -2 -6
BITMAP
0005A0
002A96
001001
000271
002837
00800B
00A14D
003A8D
00000A
000009
310009
46000A
06B778
000450
ENDCHAR
STARTCHAR Gbreve
ENCODING 286
SWIDTH 571 0
DWIDTH 6 0
BBX 7 9 0 -1
BITMAP
00221000
00460000
00169600
04820000
37122100
80177A00
71001A00
19977B00
00000710
ENDCHAR
STARTCHAR gbreve
ENCODING 287
SWIDTH 366 0
DWIDTH 4 0
BBX 6 13 -2 -6
BITMAP
000230
000550
000271
002837
00800B
00A14D
003A8D
00000A
000009
310009
46000A
06B778
000450
ENDCHAR
STARTCHAR Gdotaccent
ENCODING 288
SWIDTH 571 0
DWIDTH 6 0
BBX 7 8 0 -1
BITMAP
00072000
00169600
04820000
37122100
80177A00
71001A00
19977B00
00000710
ENDCHAR
STARTCHAR gdotaccent
ENCODING 289
SWIDTH 366 0
DWIDTH 4 0
BBX 6 12 -2 -6
BITMAP
000540
000271
002837
00800B
00A14D
003A8D
00000A
000009
310009
46000A
06B778
000450
ENDCHAR
STARTCHAR Gcommaaccent
ENCODING 290
SWIDTH 571 0
DWIDTH 6 0
BBX 7 10 0 -4
BITMAP
00169600
04820000
37122100
80177A00
71001A00
19977B00
00000710
00360000
00270000
00220000
ENDCHAR
STARTCHAR gcommaaccent
ENCODING 291
SWIDTH 366 0
DWIDTH 4 0
BBX 6 16 -2 -6
BITMAP
000530
000450
000130
000000
000000
000271
002837
00800B
00A14D
003A8D
00000A
000009
310009
46000A
06B778
000450
ENDCHAR
STARTCHAR Hcircumflex
ENCODING 292
SWIDTH 524 0
DWIDTH 6 0
BBX 6 10 0 0
BITMAP
007700
049B30
110031
700071
800071
7202B1
678892
8A1062
270054
160036
ENDCHAR
STARTCHAR hcircumflex
ENCODING 293
SWIDTH 427 0
DWIDTH 5 0
BBX 6 9 -1 0
BITMAP
000C20
1597C0
0A1010
0A0000
08BC40
073090
053063
045064
036063
ENDCHAR
STARTCHAR hbar
ENCODING 295
SWIDTH 427 0
DWIDTH 5 0
BBX 6 8 -1 0
BITMAP
150000
1A1000
8D7000
08BC40
073090
053063
045064
036063
ENDCHAR
STARTCHAR Itilde
ENCODING 296
SWIDTH 167 0
DWIDTH 2 0
BBX 4 8 -1 0
BITMAP
8767
3020
0700
0810
0530
0360
0280
0080
ENDCHAR
STARTCHAR itilde
ENCODING 297
SWIDTH 174 0
DWIDTH 2 0
BBX 5 8 -1 0
BITMAP
020110
658910
100000
042000
054000
046000
039000
009000
ENDCHAR
STARTCHAR imacron
ENCODING 299
SWIDTH 174 0
DWIDTH 2 0
BBX 4 7 -1 0
BITMAP
2992
1100
0420
0540
0460
0390
0090
ENDCHAR
STARTCHAR Ibreve
ENCODING 300
SWIDTH 167 0
DWIDTH 2 0
BBX 2 9 0 0
BITMAP
23
55
00
70
81
53
36
28
08
ENDCHAR
STARTCHAR ibreve
ENCODING 301
SWIDTH 174 0
DWIDTH 2 0
BBX 3 7 -1 0
BITMAP
1350
0520
0420
0540
0460
0390
0090
ENDCHAR
STARTCHAR Iogonek
ENCODING 302
SWIDTH 167 0
DWIDTH 2 0
BBX 3 8 0 -2
BITMAP
7000
8100
5300
3600
2800
3900
9000
5610
ENDCHAR
STARTCHAR iogonek
ENCODING 303
SWIDTH 174 0
DWIDTH 2 0
BBX 3 9 -1 -2
BITMAP
0500
0100
0420
0540
0460
0390
04A0
1800
0660
ENDCHAR
STARTCHAR Idotaccent
ENCODING 304
SWIDTH 167 0
DWIDTH 2 0
BBX 3 8 -1 0
BITMAP
1700
0000
0700
0810
0530
0360
0280
0080
ENDCHAR
STARTCHAR dotlessi
ENCODING 305
SWIDTH 174 0
DWIDTH 2 0
BBX 2 5 0 0
BITMAP
42
54
46
39
09
ENDCHAR
STARTCHAR Jcircumflex
ENCODING 308
SWIDTH 439 0
DWIDTH 5 0
BBX 6 11 0 0
BITMAP
000B40
0077C1
001010
000400
000630
000450
000270
600090
620090
072180
007A30
ENDCHAR
STARTCHAR jcircumflex
ENCODING 309
SWIDTH 200 0
DWIDTH 2 0
BBX 5 13 -2 -5
BITMAP
004B00
02A870
011010
000100
001800
000B00
000B00
000830
000650
230460
0A0370
067360
005C20
ENDCHAR
STARTCHAR Kcommaaccent
ENCODING 310
SWIDTH 468 0
DWIDTH 5 0
BBX 5 11 0 -4
BITMAP
200400
80A300
884000
770000
7B2000
739500
530680
000000
008000
00A000
004000
ENDCHAR
STARTCHAR kcommaaccent
ENCODING 311
SWIDTH 403 0
DWIDTH 4 0
BBX 5 11 0 -4
BITMAP
400000
800000
906400
855000
6A0000
5D2000
638B30
000000
026000
018000
022000
ENDCHAR
STARTCHAR Lacute
ENCODING 313
SWIDTH 346 0
DWIDTH 4 0
BBX 4 8 0 0
BITMAP
0082
0320
5100
9100
A000
9000
9000
5BB5
ENDCHAR
STARTCHAR lacute
ENCODING 314
SWIDTH 120 0
DWIDTH 1 0
BBX 3 8 -1 0
BITMAP
0740
1400
0800
0A00
0B00
0B00
0A00
0800
ENDCHAR
STARTCHAR Lcommaaccent
ENCODING 315
SWIDTH 346 0
DWIDTH 4 0
BBX 4 10 0 -4
BITMAP
5100
9100
A000
9000
9000
5BB5
0000
0630
0640
0300
ENDCHAR
STARTCHAR lcommaaccent
ENCODING 316
SWIDTH 120 0
DWIDTH 1 0
BBX 2 10 0 -4
BITMAP
80
A0
B0
B0
A0
80
00
80
91
40
ENDCHAR
STARTCHAR Lcaron
ENCODING 317
SWIDTH 346 0
DWIDTH 4 0
BBX 4 8 0 0
BITMAP
0160
0190
5140
9100
A000
9000
9000
5BB5
ENDCHAR
STARTCHAR lcaron
ENCODING 318
SWIDTH 222 0
DWIDTH 2 0
BBX 3 8 0 0
BITMAP
0610
0630
8220
A000
B000
B000
A000
8000
ENDCHAR
STARTCHAR Ldot
ENCODING 319
SWIDTH 346 0
DWIDTH 4 0
BBX 4 6 0 0
BITMAP
5100
9100
A100
9A70
9000
5BB5
ENDCHAR
STARTCHAR ldot
ENCODING 320
SWIDTH 333 0
DWIDTH 4 0
BBX 4 6 0 0
BITMAP
8000
A000
B020
B1E2
A000
8000
ENDCHAR
STARTCHAR Lslash
ENCODING 321
SWIDTH 346 0
DWIDTH 4 0
BBX 4 6 0 0
BITMAP
0700
1900
3800
8C10
6600
09BA
ENDCHAR
STARTCHAR lslash
ENCODING 322
SWIDTH 120 0
DWIDTH 1 0
BBX 3 7 -1 0
BITMAP
0300
0910
0930
0B80
6B20
0920
0600
ENDCHAR
STARTCHAR Nacute
ENCODING 323
SWIDTH 609 0
DWIDTH 7 0
BBX 7 8 0 0
BITMAP
00280000
00500000
71002200
75001B00
8A000920
89300450
91A20740
902AB700
ENDCHAR
STARTCHAR nacute
ENCODING 324
SWIDTH 459 0
DWIDTH 5 0
BBX 5 7 0 0
BITMAP
028000
051000
479900
A40650
A101A0
8300A0
350090
ENDCHAR
STARTCHAR Ncommaaccent
ENCODING 325
SWIDTH 609 0
DWIDTH 7 0
BBX 7 10 0 -4
BITMAP
71002200
75001B00
8A000920
89300450
91A20740
902AB700
00000000
00080000
000A0000
00130000
ENDCHAR
STARTCHAR ncommaaccent
ENCODING 326
SWIDTH 459 0
DWIDTH 5 0
BBX 5 9 0 -4
BITMAP
479900
A40650
A101A0
8300A0
350090
000000
008000
00A000
004000
ENDCHAR
STARTCHAR Ncaron
ENCODING 327
SWIDTH 609 0
DWIDTH 7 0
BBX 7 9 0 0
BITMAP
00646000
00081000
00000000
71002200
75001B00
8A000920
89300450
91A20740
902AB700
ENDCHAR
STARTCHAR ncaron
ENCODING 328
SWIDTH 459 0
DWIDTH 5 0
BBX 5 7 0 0
BITMAP
054700
007200
479900
A40650
A101A0
8300A0
350090
ENDCHAR
STARTCHAR napostrophe
ENCODING 329
SWIDTH 459 0
DWIDTH 5 0
BBX 5 7 0 0
BITMAP
080000
0A0000
4B9900
A40650
A101A0
8300A0
350090
ENDCHAR
STARTCHAR Omacron
ENCODING 332
SWIDTH 609 0
DWIDTH 7 0
BBX 7 8 0 0
BITMAP
00AA7000
00000000
02400000
48697000
80003900
80000740
67000640
07A89600
ENDCHAR
STARTCHAR omacron
ENCODING 333
SWIDTH 487 0
DWIDTH 5 0
BBX 5 6 0 0
BITMAP
07AA00
089C30
7301A0
800090
8102B0
2A9B20
ENDCHAR
STARTCHAR Obreve
ENCODING 334
SWIDTH 609 0
DWIDTH 7 0
BBX 7 8 0 0
BITMAP
00212000
00371000
02400000
48697000
80003900
80000740
67000640
07A89600
ENDCHAR
STARTCHAR obreve
ENCODING 335
SWIDTH 487 0
DWIDTH 5 0
BBX 5 7 0 0
BITMAP
021200
037100
089C30
7301A0
800090
8102B0
2A9B20
ENDCHAR
STARTCHAR Ohungarumlaut
ENCODING 336
SWIDTH 609 0
DWIDTH 7 0
BBX 7 9 0 0
BITMAP
00100000
00A83000
00120000
02400000
48697000
80003900
80000740
67000640
07A89600
ENDCHAR
STARTCHAR ohungarumlaut
ENCODING 337
SWIDTH 487 0
DWIDTH 5 0
BBX 5 7 0 0
BITMAP
001000
077700
08BC30
7301A0
800090
8102B0
2A9B20
ENDCHAR
STARTCHAR OE
ENCODING 338
SWIDTH 848 0
DWIDTH 9 0
BBX 9 6 0 0
BITMAP
0241232210
576BB54440
8003D12430
8000C54300
5701A00000
06AA989980
ENDCHAR
STARTCHAR oe
ENCODING 339
SWIDTH 875 0
DWIDTH 10 0
BBX 10 7 0 -1
BITMAP
0000004100
0277294A00
4826D10810
8000A79600
9102D20000
2A9B4A7551
0000004530
ENDCHAR
STARTCHAR Racute
ENCODING 340
SWIDTH 579 0
DWIDTH 6 0
BBX 7 10 -1 -1
BITMAP
00008200
00033000
0899A700
15200480
00802780
008C9400
006B0000
00369100
00051940
00000050
ENDCHAR
STARTCHAR racute
ENCODING 341
SWIDTH 346 0
DWIDTH 4 0
BBX 4 7 0 0
BITMAP
0380
0500
68A6
A000
9000
6400
1700
ENDCHAR
STARTCHAR Rcommaaccent
ENCODING 342
SWIDTH 579 0
DWIDTH 6 0
BBX 7 11 -1 -4
BITMAP
0899A700
15200480
00802780
008C9400
006B0000
00369100
00051940
00000050
00027000
00019000
00012000
ENDCHAR
STARTCHAR rcommaaccent
ENCODING 343
SWIDTH 346 0
DWIDTH 4 0
BBX 4 9 0 -4
BITMAP
68A6
A000
9000
6400
1700
0000
0630
0640
0300
ENDCHAR
STARTCHAR Rcaron
ENCODING 344
SWIDTH 579 0
DWIDTH 6 0
BBX 7 10 -1 -1
BITMAP
00164500
00027000
0899A700
15200480
00802780
008C9400
006B0000
00369100
00051940
00000050
ENDCHAR
STARTCHAR rcaron
ENCODING 345
SWIDTH 346 0
DWIDTH 4 0
BBX 4 7 0 0
BITMAP
2563
0450
68A6
A000
9000
6400
1700
ENDCHAR
STARTCHAR Sacute
ENCODING 346
SWIDTH 627 0
DWIDTH 7 0
BBX 7 10 0 -1
BITMAP
00181000
00420000
00687200
07301700
05700000
00396000
40005A20
83000280
06888930
00011000
ENDCHAR
STARTCHAR sacute
ENCODING 347
SWIDTH 514 0
DWIDTH 6 0
BBX 6 8 0 0
BITMAP
003700
005000
000000
499600
730500
078870
300074
3A99A1
ENDCHAR
STARTCHAR Scircumflex
ENCODING 348
SWIDTH 627 0
DWIDTH 7 0
BBX 7 11 0 -1
BITMAP
000C2000
0097B000
00101000
00687200
07301700
05700000
00396000
40005A20
83000280
06888930
00011000
ENDCHAR
STARTCHAR scircumflex
ENCODING 349
SWIDTH 514 0
DWIDTH 6 0
BBX 6 8 0 0
BITMAP
008700
049B30
010110
499600
730500
078870
300074
3A99A1
ENDCHAR
STARTCHAR Scedilla
ENCODING 350
SWIDTH 627 0
DWIDTH 7 0
BBX 7 11 0 -4
BITMAP
00687200
07301700
05700000
00396000
40005A20
83000280
06988930
00801000
00376000
00739000
00151000
ENDCHAR
STARTCHAR scedilla
ENCODING 351
SWIDTH 514 0
DWIDTH 6 0
BBX 6 9 0 -4
BITMAP
499600
730500
078870
300074
3A99A1
062000
016810
045730
004300
ENDCHAR
STARTCHAR Scaron
ENCODING 352
SWIDTH 627 0
DWIDTH 7 0
BBX 7 10 0 -1
BITMAP
00647000
00071000
00687200
07301700
05700000
00396000
40005A20
83000280
06888930
00011000
ENDCHAR
STARTCHAR scaron
ENCODING 353
SWIDTH 514 0
DWIDTH 6 0
BBX 6 7 0 0
BITMAP
035620
005400
499600
730500
078870
300074
3A99A1
ENDCHAR
STARTCHAR Tcommaaccent
ENCODING 354
SWIDTH 581 0
DWIDTH 6 0
BBX 8 12 0 -4
BITMAP
22110000
478C9992
00080000
00071000
00063000
00045000
00038000
0001C000
00000000
00018000
0000A000
00013000
ENDCHAR
STARTCHAR tcommaaccent
ENCODING 355
SWIDTH 328 0
DWIDTH 4 0
BBX 4 11 0 -4
BITMAP
0900
0910
0A20
7DA4
0920
0830
0530
0000
0710
0820
0400
ENDCHAR
STARTCHAR Tcaron
ENCODING 356
SWIDTH 581 0
DWIDTH 6 0
BBX 8 9 0 0
BITMAP
01645000
22380000
478C9992
00080000
00071000
00063000
00045000
00038000
0001C000
ENDCHAR
STARTCHAR tcaron
ENCODING 357
SWIDTH 431 0
DWIDTH 5 0
BBX 5 8 0 0
BITMAP
000250
090280
091040
0A2000
7DA400
092000
083000
053000
ENDCHAR
STARTCHAR Utilde
ENCODING 360
SWIDTH 571 0
DWIDTH 6 0
BBX 7 8 0 0
BITMAP
06768000
03021000
62006000
80008200
80006400
71003800
3701AD00
08BA2610
ENDCHAR
STARTCHAR utilde
ENCODING 361
SWIDTH 501 0
DWIDTH 6 0
BBX 6 8 0 -1
BITMAP
087670
030300
600010
900190
9002A0
6507C0
09A672
000012
ENDCHAR
STARTCHAR Umacron
ENCODING 362
SWIDTH 571 0
DWIDTH 6 0
BBX 7 8 0 0
BITMAP
02AA5000
00000000
62006000
80008200
80006400
71003800
3701AD00
08BA2610
ENDCHAR
STARTCHAR umacron
ENCODING 363
SWIDTH 501 0
DWIDTH 6 0
BBX 6 8 0 -1
BITMAP
08A800
000000
600010
900190
9002A0
6507C0
09A672
000012
ENDCHAR
STARTCHAR Ubreve
ENCODING 364
SWIDTH 571 0
DWIDTH 6 0
BBX 7 8 0 0
BITMAP
00221000
00460000
62006000
80008200
80006400
71003800
3701AD00
08BA2610
ENDCHAR
STARTCHAR ubreve
ENCODING 365
SWIDTH 501 0
DWIDTH 6 0
BBX 6 8 0 -1
BITMAP
020300
027100
600010
900190
9002A0
6507C0
09A672
000012
ENDCHAR
STARTCHAR Uring
ENCODING 366
SWIDTH 571 0
DWIDTH 6 0
BBX 7 9 0 0
BITMAP
00120000
00670000
00450000
62006000
80008200
80006400
71003800
3701AD00
08BA2610
ENDCHAR
STARTCHAR uring
ENCODING 367
SWIDTH 501 0
DWIDTH 6 0
BBX 6 8 0 -1
BITMAP
003100
043600
615310
900190
9002A0
6507C0
09A672
000012
ENDCHAR
STARTCHAR Uhungarumlaut
ENCODING 368
SWIDTH 571 0
DWIDTH 6 0
BBX 7 9 0 0
BITMAP
00100000
02991000
01020000
62006000
80008200
80006400
71003800
3701AD00
08BA2610
ENDCHAR
STARTCHAR uhungarumlaut
ENCODING 369
SWIDTH 501 0
DWIDTH 6 0
BBX 6 9 0 -1
BITMAP
001000
029910
010200
600010
900190
9002A0
6507C0
09A672
000012
ENDCHAR
STARTCHAR Uogonek
ENCODING 370
SWIDTH 571 0
DWIDTH 6 0
BBX 7 8 0 -2
BITMAP
23002000
71006400
80005500
71002700
45003C00
0A569C20
01646500
00004730
ENDCHAR
STARTCHAR uogonek
ENCODING 371
SWIDTH 501 0
DWIDTH 6 0
BBX 6 8 0 -2
BITMAP
100000
900140
9001A0
9103B0
392AB0
0482A4
000640
000154
ENDCHAR
STARTCHAR Wcircumflex
ENCODING 372
SWIDTH 703 0
DWIDTH 8 0
BBX 8 10 0 0
BITMAP
00078000
0049B300
00100100
00000000
20000020
900000B0
A0030074
A00A0037
734E4046
1A908B90
ENDCHAR
STARTCHAR wcircumflex
ENCODING 373
SWIDTH 656 0
DWIDTH 7 0
BBX 7 8 0 0
BITMAP
000B4000
0077C100
00101000
40000000
90030250
90091090
811D40B0
19C49B60
ENDCHAR
STARTCHAR Ycircumflex
ENCODING 374
SWIDTH 403 0
DWIDTH 4 0
BBX 5 11 0 -1
BITMAP
02C100
1A7900
110100
800320
570810
06AB00
004600
008100
009000
009000
001000
ENDCHAR
STARTCHAR ycircumflex
ENCODING 375
SWIDTH 487 0
DWIDTH 5 0
BBX 6 14 0 -6
BITMAP
00A500
068C10
010100
400040
800080
8100A0
3702E1
059772
000052
000062
000081
640090
1A8760
003400
ENDCHAR
STARTCHAR Ydieresis
ENCODING 376
SWIDTH 403 0
DWIDTH 4 0
BBX 5 10 0 -1
BITMAP
193700
031200
800320
570810
06AB00
004600
008100
009000
009000
001000
ENDCHAR
STARTCHAR Zacute
ENCODING 377
SWIDTH 571 0
DWIDTH 6 0
BBX 6 9 0 0
BITMAP
002800
005100
698600
100540
000350
048DB5
025800
009001
01CAB9
ENDCHAR
STARTCHAR zacute
ENCODING 378
SWIDTH 459 0
DWIDTH 5 0
BBX 5 8 0 0
BITMAP
019100
042000
489300
400900
003800
4AC610
0A2010
0CBB60
ENDCHAR
STARTCHAR Zdotaccent
ENCODING 379
SWIDTH 571 0
DWIDTH 6 0
BBX 6 8 0 0
BITMAP
008000
698600
100540
000350
048DB5
025800
009001
01CAB9
ENDCHAR
STARTCHAR zdotaccent
ENCODING 380
SWIDTH 459 0
DWIDTH 5 0
BBX 5 7 0 0
BITMAP
008000
489300
400900
003800
4AC610
0A2010
0CBB60
ENDCHAR
STARTCHAR Zcaron
ENCODING 381
SWIDTH 571 0
DWIDTH 6 0
BBX 6 9 0 0
BITMAP
044710
006300
698600
100540
000350
048DB5
025800
009001
01CAB9
ENDCHAR
STARTCHAR zcaron
ENCODING 382
SWIDTH 459 0
DWIDTH 5 0
BBX 5 8 0 0
BITMAP
165400
026000
489300
400900
003800
4AC610
0A2010
0CBB60
ENDCHAR
STARTCHAR florin
ENCODING 402
SWIDTH 376 0
DWIDTH 4 0
BBX 6 11 -1 -3
BITMAP
001992
008219
00A000
00B000
06D850
029110
009000
00A000
10A000
929000
188000
ENDCHAR
STARTCHAR AEacute
ENCODING 508
SWIDTH 960 0
DWIDTH 11 0
BBX 11 9 0 0
BITMAP
004305500000
084776000000
250088A98810
52003E100000
60000E114500
99777F875100
62000A000000
54000A000000
36000CABCB20
ENDCHAR
STARTCHAR aeacute
ENCODING 509
SWIDTH 881 0
DWIDTH 10 0
BBX 10 9 0 -1
BITMAP
0000280000
0000500000
0161015300
023A393920
0354E20720
7736E79600
9000550000
3ABB989772
0000001310
ENDCHAR
STARTCHAR Oslashacute
ENCODING 510
SWIDTH 609 0
DWIDTH 7 0
BBX 7 9 0 -1
BITMAP
00060000
00730000
02404000
486AA000
80074900
80090740
67540640
07E99600
02600000
ENDCHAR
STARTCHAR oslashacute
ENCODING 511
SWIDTH 487 0
DWIDTH 5 0
BBX 5 7 0 0
BITMAP
001400
009100
027750
482AA0
803990
91B3B0
2DBB30
ENDCHAR
STARTCHAR Scommaaccent
ENCODING 536
SWIDTH 627 0
DWIDTH 7 0
BBX 7 11 0 -4
BITMAP
00687200
07301700
05700000
00396000
40005A20
83000280
06888930
00011000
00270000
00190000
00120000
ENDCHAR
STARTCHAR scommaaccent
ENCODING 537
SWIDTH 514 0
DWIDTH 6 0
BBX 6 9 0 -4
BITMAP
499600
730500
078870
300074
3A99A1
000000
007200
007300
004000
ENDCHAR
STARTCHAR circumflex
ENCODING 710
SWIDTH 375 0
DWIDTH 4 0
BBX 4 3 0 5
BITMAP
05A0
2A96
1001
ENDCHAR
STARTCHAR caron
ENCODING 711
SWIDTH 375 0
DWIDTH 4 0
BBX 4 2 0 5
BITMAP
2654
0360
ENDCHAR
STARTCHAR breve
ENCODING 728
SWIDTH 224 0
DWIDTH 2 0
BBX 3 2 0 4
BITMAP
2220
4600
ENDCHAR
STARTCHAR dotaccent
ENCODING 729
SWIDTH 152 0
DWIDTH 2 0
BBX 2 1 0 5
BITMAP
63
ENDCHAR
STARTCHAR ring
ENCODING 730
SWIDTH 333 0
DWIDTH 4 0
BBX 2 3 1 4
BITMAP
12
67
45
ENDCHAR
STARTCHAR ogonek
ENCODING 731
SWIDTH 254 0
DWIDTH 3 0
BBX 3 3 0 -2
BITMAP
1400
8200
3620
ENDCHAR
STARTCHAR tilde
ENCODING 732
SWIDTH 402 0
DWIDTH 4 0
BBX 4 2 0 4
BITMAP
6768
3021
ENDCHAR
STARTCHAR hungarumlaut
ENCODING 733
SWIDTH 264 0
DWIDTH 3 0
BBX 3 3 0 4
BITMAP
0100
7770
1200
ENDCHAR
STARTCHAR Wgrave
ENCODING 7808
SWIDTH 703 0
DWIDTH 8 0
BBX 8 8 0 0
BITMAP
00066000
00001000
20000020
900000B0
A0030074
A00A0037
734E4046
1A908B90
ENDCHAR
STARTCHAR wgrave
ENCODING 7809
SWIDTH 656 0
DWIDTH 7 0
BBX 7 6 0 0
BITMAP
00093000
40001000
90030250
90091090
811D40B0
19C49B60
ENDCHAR
STARTCHAR Wacute
ENCODING 7810
SWIDTH 703 0
DWIDTH 8 0
BBX 8 8 0 0
BITMAP
00074000
00140000
20000020
900000B0
A0030074
A00A0037
734E4046
1A908B90
ENDCHAR
STARTCHAR wacute
ENCODING 7811
SWIDTH 656 0
DWIDTH 7 0
BBX 7 7 0 0
BITMAP
00073000
00240000
40000000
90030250
90091090
811D40B0
19C49B60
ENDCHAR
STARTCHAR Wdieresis
ENCODING 7812
SWIDTH 703 0
DWIDTH 8 0
BBX 8 8 0 0
BITMAP
00558200
00112000
20000020
900000B0
A0030074
A00A0037
734E4046
1A908B90
ENDCHAR
STARTCHAR wdieresis
ENCODING 7813
SWIDTH 656 0
DWIDTH 7 0
BBX 7 6 0 0
BITMAP
0083A000
40203000
90030250
90091090
811D40B0
19C49B60
ENDCHAR
STARTCHAR Ygrave
ENCODING 7922
SWIDTH 403 0
DWIDTH 4 0
BBX 5 10 0 -1
BITMAP
038000
001000
800320
570810
06AB00
004600
008100
009000
009000
001000
ENDCHAR
STARTCHAR ygrave
ENCODING 7923
SWIDTH 487 0
DWIDTH 5 0
BBX 6 12 0 -6
BITMAP
008400
400140
800080
8100A0
3702E1
059772
000052
000062
000081
640090
1A8760
003400
ENDCHAR
STARTCHAR endash
ENCODING 8211
SWIDTH 287 0
DWIDTH 3 0
BBX 3 2 0 2
BITMAP
4760
4330
ENDCHAR
STARTCHAR emdash
ENCODING 8212
SWIDTH 512 0
DWIDTH 6 0
BBX 6 2 0 2
BITMAP
256771
443231
ENDCHAR
STARTCHAR quoteleft
ENCODING 8216
SWIDTH 102 0
DWIDTH 1 0
BBX 1 3 0 5
BITMAP
70
A0
40
ENDCHAR
STARTCHAR quoteright
ENCODING 8217
SWIDTH 102 0
DWIDTH 1 0
BBX 1 3 0 5
BITMAP
70
A0
40
ENDCHAR
STARTCHAR quotesinglbase
ENCODING 8218
SWIDTH 102 0
DWIDTH 1 0
BBX 1 4 0 -1
BITMAP
10
90
90
20
ENDCHAR
STARTCHAR quotedblleft
ENCODING 8220
SWIDTH 234 0
DWIDTH 3 0
BBX 3 4 0 5
BITMAP
3400
9630
9640
2320
ENDCHAR
STARTCHAR quotedblright
ENCODING 8221
SWIDTH 234 0
DWIDTH 3 0
BBX 3 4 0 5
BITMAP
3400
9630
9640
2320
ENDCHAR
STARTCHAR quotedblbase
ENCODING 8222
SWIDTH 341 0
DWIDTH 4 0
BBX 3 4 0 -2
BITMAP
2370
18A0
09A0
0120
ENDCHAR
STARTCHAR dagger
ENCODING 8224
SWIDTH 375 0
DWIDTH 4 0
BBX 4 7 0 0
BITMAP
0700
0530
5BB7
1170
0180
0090
0080
ENDCHAR
STARTCHAR daggerdbl
ENCODING 8225
SWIDTH 375 0
DWIDTH 4 0
BBX 6 9 -1 0
BITMAP
001000
009100
006300
136841
366945
389C92
000800
000800
000800
ENDCHAR
STARTCHAR bullet
ENCODING 8226
SWIDTH 341 0
DWIDTH 4 0
BBX 2 3 1 1
BITMAP
7A
BE
11
ENDCHAR
STARTCHAR ellipsis
ENCODING 8230
SWIDTH 612 0
DWIDTH 7 0
BBX 7 2 0 0
BITMAP
5B2E1D40
5B2D1C40
ENDCHAR
STARTCHAR guilsinglleft
ENCODING 8249
SWIDTH 487 0
DWIDTH 5 0
BBX 5 5 0 0
BITMAP
000050
003930
067000
982000
369A60
ENDCHAR
STARTCHAR guilsinglright
ENCODING 8250
SWIDTH 403 0
DWIDTH 4 0
BBX 5 5 0 0
BITMAP
682000
028B30
002B10
059100
760000
ENDCHAR
STARTCHAR fraction
ENCODING 8260
SWIDTH 309 0
DWIDTH 3 0
BBX 4 9 0 0
BITMAP
0001
0062
0080
0190
0550
0A00
1900
7300
9000
ENDCHAR
STARTCHAR Euro
ENCODING 8364
SWIDTH 741 0
DWIDTH 8 0
BBX 8 8 0 0
BITMAP
00000680
00018311
589DD900
32810000
24C88600
44800000
00800001
0049AAA5
ENDCHAR
STARTCHAR trademark
ENCODING 8482
SWIDTH 1116 0
DWIDTH 12 0
BBX 12 7 0 0
BITMAP
69A997740015
0009125D1088
0008100BBAC7
000630090118
0005500A000A
0003800A000B
0001C006000B
ENDCHAR
STARTCHAR minus
ENCODING 8722
SWIDTH 287 0
DWIDTH 3 0
BBX 3 2 0 2
BITMAP
4760
4330
ENDCHAR
STARTCHAR commaaccent
ENCODING 63171
SWIDTH 375 0
DWIDTH 4 0
BBX 2 3 1 -4
BITMAP
81
91
40
ENDCHAR
STARTCHAR fi
ENCODING 64257
SWIDTH 551 0
DWIDTH 6 0
BBX 5 9 0 -1
BITMAP
019920
082490
070300
090320
6D8A30
295660
02A380
0084A0
000010
ENDCHAR
STARTCHAR fl
ENCODING 64258
SWIDTH 723 0
DWIDTH 8 0
BBX 5 8 0 0
BITMAP
019920
082290
070820
090820
6D8B30
295930
02A830
008920
ENDCHAR
STARTCHAR .notdef
ENCODING -1
SWIDTH 375 0
DWIDTH 4 0
BBX 1 1 0 0
BITMAP
00
ENDCHAR
STARTCHAR .null
ENCODING -1
SWIDTH 0 0
DWIDTH 0 0
BBX 1 1 0 0
BITMAP
00
ENDCHAR
STARTCHAR nonmarkingreturn
ENCODING -1
SWIDTH 375 0
DWIDTH 4 0
BBX 1 1 0 0
BITMAP
00
ENDCHAR
ENDFONT
